<?xml version="1.0" encoding="UTF-8"?>
<svg id="Layer_1" data-name="Layer 1" xmlns="http://www.w3.org/2000/svg" viewBox="0 0 103 24">
  <defs>
    <style>
      .cls-1 {
        fill-rule: evenodd;
      }

      .cls-1, .cls-2 {
        fill: #fff;
        stroke-width: 0px;
      }
    </style>
  </defs>
  <path class="cls-1" d="M4.82.39h2.51c-1.25,1.26-2.37,2.63-3.35,4.1L4.82.39h0ZM6.01,8.96c1.03-2.29,2.53-4.43,4.48-6.37.8-.8,1.66-1.54,2.57-2.21h3.97c-1.89.87-3.61,2.07-5.08,3.54-1.46,1.46-2.64,3.06-3.48,4.76-.82,1.64-1.32,3.33-1.48,5.01-.32,3.41.78,6.57,3.1,8.89.48.48,1.02.91,1.59,1.27h-4.11c-.92-1.03-1.65-2.22-2.16-3.5-.6-1.52-.9-3.14-.89-4.78,0-2.19.5-4.42,1.49-6.62h0ZM3.74,15.58c0,1.78.32,3.49.95,5.07.46,1.16,1.09,2.24,1.87,3.21h-3.48c-.38-.64-.72-1.32-1-2.01-.46-1.15-.77-2.34-.93-3.57L3.51,6.78c1.16-2.14,2.68-4.15,4.53-6,.13-.13.27-.26.4-.39h3.35c-.65.52-1.26,1.07-1.85,1.66-2.01,2.01-3.57,4.22-4.64,6.6-1.03,2.3-1.56,4.63-1.56,6.93h0ZM23.79,15.63c-.74.74-1.63,1.32-2.61,1.69l.25-1.23c.67-.29,1.29-.71,1.81-1.22.87-.86,1.39-1.94,1.48-3.03.09-1.1-.27-2.1-1-2.84-.21-.21-.46-.39-.72-.53l.27-1.31c.53.2,1,.5,1.4.9.82.8,1.29,1.91,1.28,3.06,0,1.52-.77,3.12-2.16,4.51ZM23.94,11.78c-.07.9-.52,1.81-1.25,2.54-.32.32-.68.59-1.06.81l1.2-5.85c.12.08.23.17.34.28.57.57.85,1.36.78,2.22ZM26.73,11.12c0-1.38-.52-2.63-1.51-3.61-.51-.5-1.12-.88-1.8-1.11l.31-1.49c.99.25,1.87.74,2.58,1.44,2.71,2.7,2.2,7.29-1.19,10.67-1.31,1.3-2.85,2.21-4.41,2.62l.3-1.44c1.21-.36,2.37-1.06,3.34-2.03,1.54-1.54,2.39-3.34,2.39-5.06h0ZM1.36,22.14c.24.59.51,1.17.82,1.73H0l.74-3.6c.17.64.37,1.27.62,1.88ZM11.27,5.84c.39-.47.8-.92,1.24-1.36,1.98-1.97,4.3-3.35,6.65-4.09h2.19l-.25,1.23c-2.72.4-5.37,1.77-7.5,3.89-.11.11-.22.22-.32.33h-2.01ZM25.66,17.57c3.71-3.69,4.22-8.76,1.19-11.77-.82-.81-1.85-1.39-2.97-1.66l.35-1.72c1.53.27,2.93.94,4.03,2.04,1.48,1.47,2.27,3.29,2.35,5.32.02.55-.01,1.1-.09,1.64-.36,2.49-1.71,5.01-3.79,7.08-1.83,1.83-4.17,3.08-6.53,3.55l.32-1.55c1.82-.4,3.63-1.41,5.13-2.91ZM18.2,9.2c-.17.13-.33.28-.48.43-1.04,1.03-1.61,2.29-1.61,3.53,0,.57.12,1.1.36,1.58h-1.39c-.11-.4-.16-.82-.16-1.23,0-1.47.67-3.02,1.84-4.3,0,0,1.44,0,1.44,0ZM20.43,4.89l-.2.95h-2.29c.78-.44,1.61-.76,2.48-.95h0ZM28.83,3.91c-.93-.93-2.08-1.61-3.34-2-.36-.11-.72-.2-1.09-.26l.26-1.27h2.28c1.24.45,2.38,1.17,3.32,2.1.96.95,1.72,2.09,2.22,3.35h-1.04l-.37,1.79s-.02-.08-.03-.12c-.41-1.35-1.15-2.56-2.2-3.61ZM33.3,5.84c-.53-1.47-1.39-2.8-2.5-3.9-.61-.61-1.29-1.13-2.04-1.55h4.25c1.43,1.54,2.45,3.41,2.95,5.45h-2.65ZM20.6,4.07c-1.43.26-2.84.87-4.1,1.78h-2.13c1.95-1.86,4.28-3.01,6.56-3.41l-.33,1.63ZM17.68,18.3l-.3,1.44c-1.02-.24-1.96-.73-2.73-1.45h3.03,0s0,0,0,0ZM10.31,14.4c0-1.75.5-3.53,1.44-5.2h1.67c-.89,1.49-1.38,3.12-1.38,4.72,0,.28.01.55.04.81h-1.76c0-.11,0-.22,0-.33ZM17.22,20.5l-.34,1.64c-1.68-.25-3.16-.98-4.33-2.14-.5-.5-.93-1.08-1.27-1.7h2.3c.94,1.11,2.22,1.89,3.64,2.21ZM7.77,13.78c.25-2.62,1.39-5.27,3.26-7.63l-.62,3.05h.46c-.87,1.68-1.33,3.45-1.33,5.2,0,.11,0,.22,0,.33h-.27l-.71,3.56h1.85c.4.83.94,1.59,1.6,2.25,1.28,1.28,2.89,2.08,4.73,2.36l-.2.96h-3.18c-1-.44-1.91-1.05-2.69-1.82-2.16-2.15-3.18-5.08-2.88-8.26h0ZM12.81,13.92c0-1.6.54-3.25,1.52-4.72h1.41c-.4.51-.74,1.07-1.01,1.67-.38.83-.58,1.72-.59,2.63,0,.42.05.84.14,1.23h-1.43c-.03-.27-.05-.54-.05-.81ZM20.04,22.86c2.62-.44,5.23-1.8,7.25-3.81.7-.7,1.34-1.46,1.89-2.28l-.65,3.16c-.08.08-.16.17-.24.25-1.65,1.64-3.65,2.9-5.84,3.69h-2.62s.21-1,.21-1.01ZM27.73,23.86h-3.29c1.39-.68,2.68-1.56,3.83-2.59l-.53,2.59ZM33.16,10.08c-.01.31-.04.62-.08.93-.19,1.55-.68,3.11-1.44,4.61h-1.75c.73-1.32,1.21-2.71,1.41-4.09.07-.48.1-.96.1-1.44h1.75ZM37.72.39c.36.63.68,1.28.95,1.96.44,1.11.75,2.28.93,3.49h-2.84c-.46-2.01-1.39-3.88-2.71-5.45,0,0,3.68,0,3.68,0ZM38.62.39h2.25l-.79,3.83c-.32-1.33-.81-2.62-1.46-3.83h0ZM37.03,10.7c.02-.21.04-.41.05-.62h1.59l-1.12,5.54h-1.8c.66-1.57,1.09-3.23,1.28-4.92ZM36.3,10.08c-.01.18-.03.36-.05.53-.18,1.68-.64,3.37-1.35,5h-2.4c.71-1.47,1.16-3,1.35-4.51.04-.34.07-.68.08-1.02,0,0,2.37,0,2.37,0ZM18.27,10.17c.3-.31.65-.57,1.02-.79l-1.08,5.34h-.83c-.33-.46-.5-1.02-.49-1.58,0-1.03.49-2.09,1.38-2.98h0Z"/>
  <g>
    <path class="cls-2" d="M55.59,11.02c-2.82-.95-5.25-1.76-5.25-4.91,0-2.39,1.47-4.8,4.75-4.8,3.09,0,4.94,1.74,4.94,4.65v.9h1.36v-.84c0-1.57-.49-3.01-1.37-4.05C58.92.69,57.24.02,55.15.02c-4.88,0-6.17,3.91-6.17,5.97,0,4.04,2.68,5.2,6.18,6.3,2.59.83,5.27,1.69,5.27,4.92,0,3.44-2.06,5.5-5.51,5.5-3.23,0-5.16-2-5.16-5.34v-1.34h-1.36v1.34c0,3.06,1.71,6.64,6.54,6.64s6.83-3.33,6.83-6.64c0-4.26-3.3-5.36-6.2-6.34Z"/>
    <polygon class="cls-2" points="72.17 12.15 81.1 12.15 81.1 10.86 72.17 10.86 72.17 1.69 81.8 1.69 81.8 .39 70.81 .39 70.81 23.62 82.05 23.62 82.05 22.33 72.17 22.33 72.17 12.15"/>
    <polygon class="cls-2" points="89.4 .39 89.4 1.69 95.52 1.69 95.52 23.62 96.88 23.62 96.88 1.69 103 1.69 103 .39 89.4 .39"/>
  </g>
</svg>